<svg xmlns="http://www.w3.org/2000/svg" viewBox="0 0 32 32" role="img" aria-label="Shizu">
  <defs>
    <linearGradient id="bg" x1="0" y1="0" x2="32" y2="32" gradientUnits="userSpaceOnUse">
      <stop offset="0%" stop-color="#3b82f6"/>
      <stop offset="100%" stop-color="#1d4ed8"/>
    </linearGradient>
  </defs>
  <rect width="32" height="32" rx="7" fill="url(#bg)"/>
  <path
    fill="#ffffff"
    d="M21.2 9.4c-1.1-1-2.6-1.5-4.3-1.5-3.6 0-6.1 2.2-6.1 5.3 0 2.5 1.4 4 4.8 5.1l1.8.6c2.2.7 2.9 1.3 2.9 2.5 0 1.4-1.3 2.4-3.3 2.4-1.8 0-3.3-.7-4.2-1.9l-2.2 2c1.3 1.6 3.4 2.5 6.1 2.5 4 0 6.7-2.3 6.7-5.6 0-2.7-1.5-4.3-4.9-5.4l-1.9-.6c-2-.6-2.7-1.2-2.7-2.3 0-1.2 1.1-2.1 2.8-2.1 1.5 0 2.7.5 3.5 1.4l2-1.9z"
  />
  <path fill="#93c5fd" d="M8 23.5h16v1.8H8z" opacity="0.9"/>
</svg>
